# AST/ASF file generated using VICON BodyLanguage
# -----------------------------------------------
:version 1.10
:name VICON
:units
  mass 1.0
  length 0.45
  angle deg
:documentation
   .ast/.asf automatically generated from VICON data using
   VICON BodyBuilder and BodyLanguage model FoxedUp or BRILLIANT.MOD
:root
   order TX TY TZ RX RY RZ
   axis XYZ
   position 0 0 0  
   orientation 0 0 0 
:bonedata
  begin
     id 1 
     name lhipjoint
     direction 0.588788 -0.725889 0.355548 
     length 2.37778 
     axis 0 0 0  XYZ
  end
  begin
     id 2 
     name lfemur
     direction 0.34202 -0.939693 0  
     length 6.86393  
     axis 0 0 20  XYZ
    dof rx ry rz
    limits (-160.0 20.0)
           (-70.0 70.0)
           (-60.0 70.0)
  end
  begin
     id 3 
     name ltibia
     direction 0.34202 -0.939693 0   
     length 7.32851   
     axis 0 0 20   XYZ
    dof rx
    limits (-10.0 170.0)
  end
  begin
     id 4 
     name lfoot
     direction 0.0626533 -0.172138 0.983078   
     length 1.98929   
     axis -90 7.62852e-016 20   XYZ
    dof rx rz
    limits (-45.0 90.0)
           (-70.0 20.0)
  end
  begin
     id 5 
     name ltoes
     direction 1.53647e-011 -4.21734e-011 1   
     length 1.00479   
     axis -90 7.62852e-016 20   XYZ
    dof rx
    limits (-90.0 20.0)
  end
  begin
     id 6 
     name rhipjoint
     direction -0.59141 -0.724168 0.354705   
     length 2.38343  
     axis 0 0 0  XYZ 
  end
  begin
     id 7 
     name rfemur
     direction -0.34202 -0.939693 0   
     length 6.95589   
     axis 0 0 -20   XYZ
    dof rx ry rz
    limits (-160.0 20.0)
           (-70.0 70.0)
           (-70.0 60.0)
  end
  begin
     id 8 
     name rtibia
     direction -0.34202 -0.939693 0   
     length 7.32327   
     axis 0 0 -20   XYZ
    dof rx
    limits (-10.0 170.0)
 end
 begin
     id 9 
     name rfoot
     direction -0.0660461 -0.18146 0.981178   
     length 1.85272  
     axis -90 -7.62852e-016 -20   XYZ
    dof rx rz
    limits (-45.0 90.0)
           (-20.0 70.0)
  end
  begin
     id 10 
     name rtoes
     direction -1.53586e-011 -4.21988e-011 1   
     length 0.93746   
     axis -90 -7.62852e-016 -20   XYZ
    dof rx
    limits (-90.0 20.0)
  end
  begin
     id 11 
     name lowerback
     direction -0.0107982 0.991059 0.13299   
     length 1.98691   
     axis 0 0 0   XYZ
    dof rx ry rz
    limits (-20.0 45.0)
           (-30.0 30.0)
           (-30.0 30.0)
  end
  begin
     id 12 
     name upperback
     direction 0.0076296 0.999916 0.0104576   
     length 1.99501   
     axis 0 0 0   XYZ
    dof rx ry rz
    limits (-20.0 45.0)
           (-30.0 30.0)
           (-30.0 30.0)
  end
  begin
     id 13 
     name thorax
     direction 0.01176 0.998615 -0.0512909   
     length 2.03144   
     axis 0 0 0   XYZ
    dof rx ry rz
    limits (-20.0 45.0)
           (-30.0 30.0)
           (-30.0 30.0)
  end
  begin
     id 14 
     name lowerneck
     direction -0.0171909 0.999644 0.0204011   
     length 1.71818   
     axis 0 0 0   XYZ
    dof rx ry rz
    limits (-20.0 45.0)
           (-30.0 30.0)
           (-30.0 30.0)
  end
  begin
     id 15 
     name upperneck
     direction 0.0250902 0.997482 -0.0663316   
     length 1.66199   
     axis 0 0 0   XYZ
    dof rx ry rz
    limits (-20.0 45.0)
           (-30.0 30.0)
           (-30.0 30.0)
  end
  begin
     id 16
     name head
     direction 0.00881535 0.99956 -0.0283365  
     length 1.81545  
     axis 0 0 0   XYZ
    dof rx ry rz
    limits (-20.0 45.0)
           (-30.0 30.0)
           (-30.0 30.0)
  end
  begin
     id 17 
     name lclavicle
     direction 0.840411 0.486876 -0.238035  
     length 3.30409  
     axis 0 0 0   XYZ
    dof ry rz
    limits (-20.0 10.0)
           (0.0 20.0)
  end
  begin
     id 18 
     name lhumerus
     direction 1 -4.48977e-011 -5.16239e-027   
     length 4.62672   
     axis 180 -30 -90   XYZ
    dof rx ry rz
    limits (-60.0 90.0)
           (-90.0 90.0)
           (-90.0 90.0)
  end
  begin
     id 19
     name lradius
     direction 1 -4.48977e-011 -8.71171e-027   
     length 3.11018   
     axis 180 -30 -90   XYZ
    dof rx
    limits (-10.0 170.0)
  end
  begin
     id 20
     name lwrist
     direction 1 -4.48912e-011 -1.03764e-026   
     length 1.55509   
     axis 9.09556e-015 90 90   XYZ
    dof ry
    limits (-180.0 0.0)
 end
  begin
     id 21 
     name lhand
     direction 1 -4.49072e-011 -2.07528e-026   
     length 0.743834   
     axis 1.3242e-014 90 90   XYZ
    dof rx rz
    limits (-90.0 90.0)
           (-45.0 45.0)
  end
  begin
     id 22 
     name lfingers
     direction 1 -4.48909e-011 -4.15056e-026   
     length 0.599698   
     axis 2.64841e-014 90 90   XYZ
    dof rx
    limits (0.0 90.0)
  end
  begin
     id 23
     name lthumb
     direction 0.707107 -6.35013e-011 0.707107   
     length 0.86105   
     axis -90 45 2.85299e-015   XYZ
    dof rx rz
    limits (-45.0 45.0)
           (-45.0 45.0)
  end
  begin
     id 24 
     name rclavicle
     direction -0.835208 0.500237 -0.228452   
     length 3.2716  
     axis 0 0 0   XYZ 
    dof ry rz
    limits (-10.0 20.0)
           (-20.0 0.0)
  end
  begin
     id 25 
     name rhumerus
     direction -1 -4.48978e-011 -5.1953e-028  
     length 4.55919   
     axis 180 30 90   XYZ
    dof rx ry rz
    limits (-90.0 60.0)
           (-90.0 90.0)
           (-90.0 90.0)
  end
  begin
     id 26 
     name rradius
     direction -1 -4.48961e-011 -5.99546e-027   
     length 3.22748   
     axis 180 30 90   XYZ
    dof rx
    limits (-10.0 170.0)
  end
  begin
     id 27 
     name rwrist
     direction -1 -4.48986e-011 -1.03764e-026   
     length 1.61374   
     axis 9.09556e-015 -90 -90   XYZ
    dof ry
    limits (-180.0 0.0)
  end
  begin
     id 28
     name rhand
     direction -1 -4.4899e-011 -2.07528e-026   
     length 0.700882   
     axis 1.3242e-014 -90 -90   XYZ
    dof rx rz
    limits (-90.0 90.0)
           (-45.0 45.0)
  end
  begin
     id 29
     name rfingers
     direction -1 -4.48991e-011 -4.15056e-026   
     length 0.565069   
     axis 2.64841e-014 -90 -90   XYZ
    dof rx
    limits (0.0 90.0)
  end
  begin
     id 30
     name rthumb
     direction -0.707107 -6.34804e-011 0.707107   
     length 0.811329   
     axis -90 -45 -2.85299e-015   XYZ
    dof rx rz
    limits (-45.0 45.0)
           (-45.0 45.0)
  end
:hierarchy
  begin
    root lhipjoint rhipjoint lowerback
    lhipjoint lfemur
    lfemur ltibia
    ltibia lfoot
    lfoot ltoes
    rhipjoint rfemur
    rfemur rtibia
    rtibia rfoot
    rfoot rtoes
    lowerback upperback
    upperback thorax
    thorax lowerneck lclavicle rclavicle
    lowerneck upperneck
    upperneck head
    lclavicle lhumerus
    lhumerus lradius
    lradius lwrist
    lwrist lhand lthumb
    lhand lfingers
    rclavicle rhumerus
    rhumerus rradius
    rradius rwrist
    rwrist rhand rthumb
    rhand rfingers
  end

#!OML:ASF F:\VICON\USERDATA\INSTALL\SteveWalk\SteveWalk.ASF
:FULLY-SPECIFIED
:DEGREES
48
root -0.561753 15.9457 -33.0222 18.0227 -7.75598 0.0536075
lowerback -15.87 2.33388 -0.398457
upperback -4.90472 3.12132 0.11084
thorax 3.64362 1.54125 0.921728
lowerneck -4.74288 -1.44502 0.490984
upperneck 14.5011 -1.89849 -0.821362
head 5.12324 -0.956417 -0.445765
rclavicle 4.78792e-014 1.39149e-014
rhumerus -27.5468 8.63456 -85.4222
rradius 66.1554
rwrist -18.03
rhand -15.4238 -33.4368
rfingers 7.12502
rthumb 10.7559 -63.1415
lclavicle 4.78792e-014 1.39149e-014
lhumerus -62.495 25.0752 56.3845
lradius 11.9497
lwrist -37.2019
lhand -9.8644 -14.1888
lfingers 7.12502
lthumb 16.1142 15.1612
rfemur -0.330439 -4.74892 18.0726
rtibia 22.5035
rfoot -21.9667 18.9171
rtoes -12.7018
lfemur -47.6805 6.4951 -24.7647
ltibia 11.513
lfoot -9.23867 1.42185
ltoes -14.9899
49
root -0.558999 15.9094 -32.762 17.8768 -7.56389 0.243229
lowerback -15.7411 2.25635 -0.778872
upperback -4.99971 3.08351 -0.0210247
thorax 3.46253 1.52459 0.981918
lowerneck -4.68794 -1.50936 0.484321
upperneck 14.4878 -2.0134 -0.618897
head 5.11141 -1.00009 -0.387912
rclavicle 1.05775e-014 -2.78299e-015
rhumerus -28.2208 8.20958 -85.4639
rradius 66.0891
rwrist -17.7205
rhand -15.4333 -33.04
rfingers 7.12502
rthumb 10.7468 -62.7451
lclavicle 1.05775e-014 -2.78299e-015
lhumerus -64.1765 26.6812 52.5084
lradius 11.4406
lwrist -40.9546
lhand -9.39481 -14.1112
lfingers 7.12502
lthumb 16.5664 15.2016
rfemur 0.455262 -4.06042 17.7827
rtibia 23.0366
rfoot -20.9258 18.5403
rtoes -15.8579
lfemur -48.1405 5.84022 -24.8407
ltibia 14.1712
lfoot -7.76177 1.56088
ltoes -17.1485
50
root -0.552012 15.9 -32.4929 17.8216 -7.23649 0.430158
lowerback -15.9307 2.12999 -1.17325
upperback -4.98657 2.98341 -0.0940608
thorax 3.56308 1.47421 1.11755
lowerneck -4.89025 -1.51491 0.389611
upperneck 14.4848 -2.04434 -0.39016
head 5.14838 -1.0055 -0.305058
rclavicle -3.06796e-014 -1.13307e-014
rhumerus -28.7566 7.91743 -85.3869
rradius 65.9402
rwrist -17.6316
rhand -15.7163 -33.1702
rfingers 7.12502
rthumb 10.4739 -62.8893
lclavicle -3.06796e-014 -1.13307e-014
lhumerus -66.7607 29.3888 46.4464
lradius 10.6498
lwrist -46.7543
lhand -9.03847 -14.3767
lfingers 7.12502
lthumb 16.9094 14.9072
rfemur 1.0494 -3.65968 17.5287
rtibia 23.7163
rfoot -19.8008 18.3107
rtoes -18.8343
lfemur -48.6917 5.3141 -25.0421
ltibia 16.8912
lfoot -4.25462 0.991949
ltoes -21.7492
51
root -0.541378 15.9051 -32.2206 17.8386 -6.86009 0.679755
lowerback -16.2743 2.00304 -1.61739
upperback -4.96155 2.89775 -0.220634
thorax 3.75891 1.42896 1.23399
lowerneck -4.99989 -1.58585 0.334467
upperneck 14.4709 -2.18345 -0.0497168
head 5.16695 -1.0544 -0.199496
rclavicle -7.13062e-015 1.44119e-014
rhumerus -29.3427 7.44045 -85.3166
rradius 65.7305
rwrist -17.6141
rhand -15.9268 -33.364
rfingers 7.12502
rthumb 10.2708 -63.0932
lclavicle -7.13062e-015 1.44119e-014
lhumerus -68.9537 31.2793 41.5502
lradius 10.2448
lwrist -50.9978
lhand -8.37615 -13.9882
lfingers 7.12502
lthumb 17.5469 15.24
rfemur 1.33541 -3.44482 17.2022
rtibia 24.7339
rfoot -18.2853 18.4487
rtoes -20.3952
lfemur -49.431 4.52385 -24.9648
ltibia 19.6496
lfoot -1.68387 0.246417
ltoes -21.8803
52
root -0.537213 15.9091 -31.9642 17.9735 -6.5185 0.916074
lowerback -16.3958 1.87883 -2.10688
upperback -5.0898 2.8218 -0.394267
thorax 3.67474 1.3931 1.31446
lowerneck -4.9545 -1.81163 0.374431
upperneck 14.4883 -2.53472 0.236569
head 5.16751 -1.20571 -0.137619
rclavicle -2.53482e-014 -4.27387e-015
rhumerus -30.0443 6.73384 -85.3903
rradius 65.3273
rwrist -17.6239
rhand -15.7514 -32.8689
rfingers 7.12502
rthumb 10.44 -62.5897
lclavicle -2.53482e-014 -4.27387e-015
lhumerus -70.1486 31.9732 38.9043
lradius 10.1891
lwrist -53.0363
lhand -7.69182 -12.9759
lfingers 7.12502
lthumb 18.2053 16.1921
rfemur 1.11311 -3.08359 16.9835
rtibia 26.1641
rfoot -15.8986 18.7829
rtoes -20.6755
lfemur -50.4115 3.67558 -24.6646
ltibia 22.416
lfoot -0.770424 -0.156304
ltoes -17.2539
53
root -0.538775 15.9001 -31.7207 18.2335 -6.09434 1.07508
lowerback -16.3456 1.69722 -2.61576
upperback -5.31978 2.66205 -0.467798
thorax 3.38939 1.32152 1.48618
lowerneck -5.1398 -1.99754 0.369992
upperneck 14.7426 -2.81067 0.375088
head 5.28002 -1.32996 -0.114176
rclavicle -4.46324e-015 -6.13748e-015
rhumerus -30.9277 6.04961 -85.4188
rradius 64.9473
rwrist -17.6172
rhand -15.4617 -32.16
rfingers 7.12502
rthumb 10.7194 -61.8665
lclavicle -4.46324e-015 -6.13748e-015
lhumerus -70.7397 32.5095 37.3269
lradius 9.82315
lwrist -54.4631
lhand -7.80284 -12.3376
lfingers 7.12502
lthumb 18.0985 16.8404
rfemur 0.401694 -2.74525 16.9397
rtibia 28.132
rfoot -12.9112 19.2691
rtoes -21.5505
lfemur -51.4522 2.99931 -24.4579
ltibia 25.0732
lfoot -0.423933 -0.460576
ltoes -15.2327
54
root -0.538722 15.8801 -31.4717 18.327 -5.67918 1.40127
lowerback -16.9398 1.5087 -3.14662
upperback -5.02296 2.53644 -0.637614
thorax 4.00832 1.2449 1.6118
lowerneck -5.5039 -2.00137 0.367881
upperneck 14.5676 -2.86318 0.703589
head 5.2931 -1.33371 -0.018126
rclavicle 1.53534e-015 5.29264e-015
rhumerus -31.2038 5.07319 -85.3941
rradius 64.5563
rwrist -17.2355
rhand -14.9366 -32.318
rfingers 7.12502
rthumb 11.2259 -61.9976
lclavicle 1.53534e-015 5.29264e-015
lhumerus -70.7005 33.688 36.0379
lradius 9.32189
lwrist -56.0332
lhand -8.41053 -12.2337
lfingers 7.12502
lthumb 17.5138 16.9973
rfemur -0.36638 -2.58286 16.6655
rtibia 30.63
rfoot -9.54593 19.8612
rtoes -21.2807
lfemur -52.1499 2.48683 -24.6478
ltibia 27.6029
lfoot -0.468559 -0.699674
ltoes -15.5537
55
root -0.538796 15.8567 -31.2197 18.2446 -5.31932 1.9252
lowerback -15.9686 1.39934 -3.81315
upperback -5.68796 2.45458 -0.964979
thorax 2.77618 1.23785 1.57842
lowerneck -5.06743 -2.23147 0.056441
upperneck 14.9105 -3.25038 1.42148
head 5.34335 -1.49181 0.235391
rclavicle -1.02359e-014 -1.03368e-014
rhumerus -32.9884 4.08315 -85.6452
rradius 64.0116
rwrist -17.4118
rhand -14.8358 -33.249
rfingers 7.12502
rthumb 11.3231 -62.9233
lclavicle -1.02359e-014 -1.03368e-014
lhumerus -71.6617 33.3492 34.171
lradius 9.23975
lwrist -57.5276
lhand -8.67915 -12.4416
lfingers 7.12502
lthumb 17.2553 16.8124
rfemur -1.1488 -2.64855 16.1216
rtibia 33.4635
rfoot -6.08375 19.9591
rtoes -19.1042
lfemur -52.5353 1.99704 -25.1308
ltibia 30.0185
lfoot -1.0824 -0.946737
ltoes -15.4102
56
root -0.537711 15.8433 -30.9763 18.1175 -4.79124 2.39511
lowerback -16.0001 1.17959 -4.33383
upperback -5.58993 2.26171 -1.23319
thorax 2.89534 1.14007 1.55893
lowerneck -4.96946 -2.33087 -0.0128784
upperneck 14.565 -3.44191 1.91808
head 5.23119 -1.56066 0.392599
rclavicle -2.53761e-015 1.37161e-014
rhumerus -33.5476 3.46566 -86.0043
rradius 62.9582
rwrist -18.6785
rhand -15.9091 -33.6881
rfingers 7.12502
rthumb 10.2878 -63.4165
lclavicle -2.53761e-015 1.37161e-014
lhumerus -71.9634 34.127 32.6048
lradius 9.14508
lwrist -58.8118
lhand -8.62847 -11.9114
lfingers 7.12502
lthumb 17.304 17.3382
rfemur -2.18008 -3.08894 15.6174
rtibia 36.4758
rfoot -1.55768 19.7484
rtoes -20.2062
lfemur -52.7305 1.27869 -25.5017
ltibia 32.1988
lfoot -1.90136 -1.40067
ltoes -13.2812
57
root -0.534396 15.8496 -30.7428 17.9193 -4.16237 2.68963
lowerback -15.7569 0.956569 -4.72574
upperback -5.5154 2.02437 -1.39102
thorax 2.84839 1.02427 1.56635
lowerneck -4.80651 -2.3857 0.0415393
upperneck 14.1451 -3.55153 2.2145
head 5.07937 -1.59843 0.473523
rclavicle -2.26288e-014 2.98177e-015
rhumerus -34.1753 2.54768 -86.0799
rradius 61.744
rwrist -18.689
rhand -16.141 -33.5511
rfingers 7.12502
rthumb 10.0641 -63.2904
lclavicle -2.26288e-014 2.98177e-015
lhumerus -72.4059 34.857 31.0414
lradius 9.24854
lwrist -59.7647
lhand -8.22801 -11.4775
lfingers 7.12502
lthumb 17.6894 17.7379
rfemur -3.45895 -3.54798 15.2897
rtibia 39.6128
rfoot 3.842 19.4546
rtoes -17.7473
lfemur -52.6263 0.530689 -25.6772
ltibia 33.9899
lfoot -2.70668 -2.02549
ltoes -9.93289
58
root -0.535218 15.8688 -30.5038 17.6861 -3.88118 3.03776
lowerback -15.5666 0.819013 -5.28675
upperback -5.44231 1.92556 -1.55812
thorax 2.81423 0.977548 1.6851
lowerneck -4.68593 -2.40931 -0.0393569
upperneck 13.966 -3.62615 2.6248
head 5.01367 -1.61669 0.61184
rclavicle -2.28292e-016 -4.77083e-015
rhumerus -35.1057 1.17701 -85.7705
rradius 61.0812
rwrist -16.5456
rhand -14.305 -35.9673
rfingers 7.12502
rthumb 11.835 -65.6128
lclavicle -2.28292e-016 -4.77083e-015
lhumerus -72.8438 35.6026 29.4622
lradius 9.34535
lwrist -60.5655
lhand -7.5186 -11.2501
lfingers 7.12502
lthumb 18.372 17.9023
rfemur -4.87051 -3.47612 14.8624
rtibia 42.8394
rfoot 8.22567 19.292
rtoes -16.6619
lfemur -52.1673 0.154461 -26.028
ltibia 35.3498
lfoot -3.65759 -2.37039
ltoes -8.20198
59
root -0.536965 15.8921 -30.2543 17.3874 -4.08807 3.44932
lowerback -15.4874 0.779769 -6.00903
upperback -5.28436 1.98871 -1.70491
thorax 2.91088 1.00637 1.94732
lowerneck -4.77104 -2.38612 -0.137222
upperneck 13.8419 -3.62409 2.93128
head 4.99726 -1.60245 0.722166
rclavicle -4.45709e-014 2.20651e-014
rhumerus -36.2005 0.722654 -85.9569
rradius 60.8242
rwrist -18.1156
rhand -15.386 -42.0261
rfingers 7.12502
rthumb 10.7924 -71.7288
lclavicle -4.45709e-014 2.20651e-014
lhumerus -73.3649 36.5182 27.8404
lradius 9.37114
lwrist -61.3573
lhand -7.06857 -11.0894
lfingers 7.12502
lthumb 18.8049 18.0217
rfemur -6.29766 -2.83555 14.281
rtibia 46.111
rfoot 11.3533 19.8229
rtoes -17.605
lfemur -51.369 0.165906 -26.5698
ltibia 36.3278
lfoot -4.55466 -2.26514
ltoes -7.90933
